<?xml version="1.0" encoding="utf-8"?>
<!-- Generator: Adobe Illustrator 24.0.0, SVG Export Plug-In . SVG Version: 6.00 Build 0)  -->
<svg version="1.1" id="Layer_1" xmlns="http://www.w3.org/2000/svg" xmlns:xlink="http://www.w3.org/1999/xlink" x="0px" y="0px"
	 viewBox="0 0 270 342" style="enable-background:new 0 0 270 342;" xml:space="preserve">
<style type="text/css">
	.st0{fill:#231F20;}
</style>
<g>
	<path class="st0" d="M223.6,49.9C202,24.6,171.4,11.2,135,11.2c-36.4,0-67,13.4-88.6,38.7C22.8,77.6,10.8,118.4,10.8,171
		c0,52.6,12,93.4,35.6,121.1c21.6,25.3,52.2,38.7,88.6,38.7c36.4,0,67-13.4,88.6-38.7c23.6-27.7,35.6-68.5,35.6-121.1
		C259.2,118.4,247.2,77.6,223.6,49.9z M220.2,289.2c-20.7,24.3-50.1,37.1-85.2,37.1c-35,0-64.5-12.8-85.2-37.1
		C26.9,262.3,15.3,222.5,15.3,171c0-51.5,11.6-91.3,34.5-118.2C70.5,28.6,100,15.7,135,15.7c35,0,64.5,12.8,85.2,37.1
		c22.9,26.9,34.5,66.6,34.5,118.2C254.7,222.5,243.1,262.3,220.2,289.2z"/>
	<path class="st0" d="M95.2,52.6c-0.2-0.8-0.2-1.6,0-2.3c-2-2.7-4.1-5.7-5.3-8l7.3-1.5c0.8-0.2,1.3-0.9,1.2-1.7l-0.8-4.5
		c-0.1-0.8-0.8-1.3-1.6-1.2c-3.8,0.2-8,0.8-10,4.3c-1.8,3.2,4.8,12.5,9.3,17.6C95.6,54.4,95.5,53.6,95.2,52.6z M95,36.4l0.3,1.7
		l-6.5,1.3c0-0.2,0-0.3,0-0.4C89.9,37.2,92.3,36.7,95,36.4z"/>
	<path class="st0" d="M174.8,52.6c-0.3,1-0.3,1.8-0.3,2.6c4.5-5.1,11.2-14.4,9.3-17.6c-2-3.5-6.2-4-10-4.3c-0.8,0-1.4,0.5-1.6,1.2
		l-0.8,4.5c-0.1,0.8,0.4,1.6,1.2,1.7l7.3,1.5c-1.2,2.3-3.3,5.3-5.3,8C175,51,175,51.8,174.8,52.6z M175,36.4
		c2.6,0.2,5.1,0.8,6.2,2.6c0,0.1,0,0.3,0,0.4l-6.5-1.3L175,36.4z"/>
	<path class="st0" d="M61.4,234.2c-3.7-0.5-7.3-0.6-10.5-0.6c-2.5,0-4.5-0.1-6.1-0.3c-0.1-0.2-0.2-0.5-0.3-0.7
		c-1.2-2.5-2.1-4.3-4.2-4.8c0.3-2.7,1.3-4.9,3.1-6.5c3.3-3.1,8.8-4.1,15.1-4.2c-0.1-1-0.2-2-0.3-3c-1.7,0-3.3,0.1-4.8,0.3
		c-0.6-4.1-1-8.3-0.8-12.3c0.2-8.4,1.2-18.4,1.7-24.4c0.2-1.9,0.3-3.4,0.4-4.4c0.2-3.1,0.8-5.5,1.3-7.5c1.1,0.2,2.4,0.3,3.7,0.4
		c0.2-1,0.4-2,0.6-3c-1.3-0.1-2.3-0.1-3.2-0.3c0.3-0.7,0.6-1.4,0.9-1.9c0.9-1.9,1.7-3.6,0.4-5.3c-0.4-0.6-1.2-0.9-2-1.1
		c1.7-1.4,4.1-2.3,6.9-2.9c0.4-1.1,0.8-2.2,1.2-3.3c-4.3,0.6-8.1,1.9-10.6,4.3c-0.7,0.6-1.2,1.3-1.7,2c-0.5,0.2-1,0.4-1.3,0.6
		c-4.1,3-5.3,11.2-7,22.5c-2.5,17-2.6,30.2-0.5,39.5c-0.7,0.5-1.4,1-2.1,1.6c-2.5,2.3-3.9,5.4-4.1,9.3c-0.9,0.8-1.1,2.2-1.2,2.9
		c-0.8,5.6,3.3,14,13.3,27.2c0.9,1.2,1.9,2.7,3.1,4.5c6.1,9,16.3,24,33.5,33.2l2.4,1.3c7.8,4.2,15.2,8.2,21,8.2c0.1,0,0.1,0,0.2,0
		c2.8,0,13.9-1.7,14.3-5c0.1-0.7-0.1-1.9-2.3-2.4c-3.1-0.7-30.6-7.5-45-23.9c-5.3-6.1-11.4-13.7-16.3-19.9c-3.2-4-5.7-7.1-7.1-8.8
		c-3.3-3.8-5.3-6.9-6.7-9.4c0.6,0,1.2,0.1,1.8,0.1c0.4,0.7,0.8,1.3,1.3,1.8c1.7,1.7,7.5,5.9,10.6,5.9c0.5,0,1-0.1,1.3-0.4
		c0.3-0.2,1.3-1.2,0.2-3c-0.6-1-1.3-2.3-1.9-3.8c0.8,0.1,1.5,0.2,2.3,0.3C61.9,236.3,61.7,235.2,61.4,234.2z M52.2,236.6
		c1.4,0,2.8,0.1,4.3,0.2c0.6,1.4,1.2,2.7,1.7,3.8C56.4,239.7,53.9,238.1,52.2,236.6z M74.4,276.4c13.4,15.4,37.1,22.5,44.9,24.5
		c-2.3,0.9-6.4,1.8-9.7,1.9c0,0-0.1,0-0.1,0c-5,0-12.4-4-19.6-7.8l-2.4-1.3C71,284.8,61,270.1,55.1,261.3c-1.2-1.8-2.3-3.4-3.2-4.6
		c-9.2-12.2-13.4-20.3-12.7-25c0,0,0,0,0,0c0.1-0.6,0.2-0.9,0.2-1.1c0.1,0,0.1,0,0.2,0c0.8,0.1,1.1,0.7,2.3,3.2
		c1.4,3,3.6,7.5,9.1,13.9c1.4,1.6,4,4.9,7,8.7C63,262.6,69.1,270.2,74.4,276.4z M47,178.5c1.4-9.8,2.7-18.3,5.8-20.5c0,0,0,0,0,0
		c0.3-0.3,1.4-0.4,2.3-0.4c0.5,0,0.9,0,1.2,0.1c0.1,0.3-0.2,0.8-0.8,2.1c-1.1,2.3-3,6.3-3.5,13.3c-0.1,1-0.2,2.5-0.4,4.3
		c-0.6,6-1.5,16.1-1.7,24.6c-0.1,4.2,0.2,8.6,0.9,12.8c-1.5,0.3-2.9,0.7-4.3,1.3C44.4,207.3,44.6,194.7,47,178.5z"/>
	<path class="st0" d="M233.8,231.3c-0.1-0.7-0.3-2.1-1.2-2.9c-0.3-3.9-1.6-7-4.1-9.3c-0.6-0.6-1.3-1.1-2.1-1.6
		c2.2-9.3,2-22.3-0.5-39.5c-1.7-11.3-2.9-19.5-7-22.5c-0.3-0.2-0.8-0.4-1.3-0.6c-0.5-0.7-1-1.4-1.7-2c-2.6-2.4-6.4-3.7-10.8-4.4
		c0.4,1,0.8,2.1,1.2,3.3c2.9,0.6,5.3,1.5,7.1,2.9c-0.9,0.2-1.6,0.5-2,1.1c-1.3,1.7-0.5,3.4,0.4,5.3c0.3,0.6,0.6,1.2,0.9,1.9
		c-0.9,0.1-2,0.2-3.3,0.3c0.2,1,0.4,2,0.6,3c1.4-0.1,2.6-0.2,3.8-0.4c0.6,1.9,1.1,4.3,1.3,7.5c0.1,1,0.2,2.5,0.4,4.3
		c0.6,6,1.5,16.1,1.7,24.5c0.1,4-0.2,8.2-0.8,12.3c-1.5-0.2-3.2-0.3-4.8-0.3c-0.1,1-0.2,2-0.3,3c6.3,0.1,11.8,1.2,15.1,4.2
		c1.8,1.6,2.8,3.8,3.1,6.5c-2.1,0.5-3,2.3-4.2,4.8c-0.1,0.2-0.2,0.4-0.3,0.7c-1.6,0.2-3.6,0.2-6.1,0.3c-3.2,0.1-6.7,0.1-10.5,0.6
		c-0.2,1.1-0.5,2.1-0.8,3.1c0.8-0.1,1.5-0.2,2.3-0.3c-0.7,1.5-1.3,2.7-1.9,3.8c-1.1,1.8-0.1,2.8,0.2,3c0.3,0.3,0.8,0.4,1.3,0.4
		c3.1,0,8.9-4.1,10.6-5.9c0.5-0.5,0.9-1.1,1.3-1.8c0.6,0,1.2,0,1.8-0.1c-1.4,2.5-3.4,5.6-6.7,9.4c-1.4,1.6-3.9,4.8-7.1,8.7
		c-4.9,6.2-11,13.8-16.3,19.9c-14.3,16.4-41.9,23.2-45,23.9c-2.2,0.5-2.4,1.7-2.3,2.4c0.4,3.3,11.5,5,14.3,5c0.1,0,0.1,0,0.2,0
		c5.8,0,13.2-4,21-8.2l2.4-1.3c17.2-9.2,27.4-24.2,33.5-33.2c1.2-1.8,2.3-3.3,3.1-4.5C230.5,245.4,234.6,237,233.8,231.3z
		 M214.9,261.4c-6,8.8-15.9,23.4-32.4,32.3l-2.4,1.3c-7.2,3.9-14.6,7.8-19.6,7.8c0,0-0.1,0-0.1,0c-3.3,0-7.3-1-9.7-1.9
		c7.8-2,31.4-9,44.9-24.5c5.3-6.1,11.5-13.8,16.4-20c3-3.8,5.6-7,7-8.6c5.5-6.3,7.7-10.8,9.1-13.9c1.2-2.5,1.6-3.1,2.3-3.2
		c0.1,0,0.2,0,0.2,0c0.1,0.1,0.1,0.4,0.2,1.1c0,0,0,0,0,0c0.7,4.6-3.5,12.8-12.7,25C217.2,258,216.2,259.5,214.9,261.4z
		 M220.3,202.1c-0.2-8.5-1.2-18.6-1.7-24.7c-0.2-1.8-0.3-3.3-0.4-4.3c-0.5-7-2.4-11-3.5-13.3c-0.6-1.3-0.9-1.9-0.8-2.1
		c0.7-0.3,2.9-0.1,3.4,0.3c3.1,2.3,4.3,10.7,5.8,20.5c2.4,16.2,2.6,28.8,0.7,37.7c-1.3-0.5-2.8-0.9-4.3-1.3
		C220.1,210.7,220.4,206.3,220.3,202.1z M211.7,240.5c0.6-1.1,1.1-2.4,1.7-3.8c1.5-0.1,2.9-0.1,4.3-0.2
		C216.1,238.1,213.6,239.7,211.7,240.5z"/>
	<path class="st0" d="M206.4,131.2c1-0.1,1.9-0.2,2.7-0.2c-0.2,1.6,0.3,3.3,1.3,4.6c0.7,0.9,1.5,1.5,2.4,1.8
		c-0.2,0.4-0.5,0.9-0.8,1.3c-1.8,2.3-5,3.9-9,5.1c0.5,0.8,0.9,1.8,1.4,2.7c4.3-1.3,7.8-3.2,10-6c0.8-1,1.3-2.1,1.7-3.2
		c1.9-0.6,3-2,3.2-3.5c0.5-4.7,5-19.5,8.1-24.9c0.2-0.4,0.3-0.9,0.1-1.3l-1.1-2.7c-0.3-0.7-1-1.1-1.7-0.9c-2.1,0.5-3.4,0.3-3.9-0.7
		c-1.3-2.5,1.2-9.4,6-13.8c0.5-0.4,0.6-1.1,0.4-1.7l-1.3-3c-0.3-0.7-1.2-1.1-1.9-0.8c-4.8,2-7.4,1.6-8.2,0.6c-1-1.3-0.3-5.5,5-12.9
		c0.4-0.6,0.4-1.4-0.2-1.9l-2.7-2.7c-0.6-0.6-1.5-0.6-2.1,0c-3.8,3.8-5.7,4-6,3.7c-0.8-0.5-0.9-4.1,2.1-10.4
		c0.3-0.5,0.2-1.2-0.2-1.7l-1.9-2.1c-0.3-0.4-0.8-0.6-1.3-0.5c-0.5,0.1-0.9,0.4-1.1,0.8c-2.5,5.4-4.8,7-11.7,8.1
		c-0.8,0.1-1.3,0.8-1.3,1.6l0.3,5.5c0,0.4,0.2,0.7,0.5,1c11.2,10.8,18.3,37.6,14.9,54.8c-0.8,0-1.7,0-2.7,0.1
		C206.8,129.1,206.6,130.1,206.4,131.2z M197.2,71.4l-0.2-3.5c4.8-0.9,8-2.2,10.6-6c-2.2,5.6-2.2,9.8,0.1,11.4c2.1,1.5,5,0.4,8.8-3
		l0.7,0.7c-5,7.2-6.5,12.5-4.2,15.4c1.8,2.3,5.4,2.5,10.3,0.8l0.3,0.8c-4.7,4.7-8.1,12.4-5.8,16.6c0.6,1.2,2.2,3,6,2.5l0.4,0.9
		c-3.3,6.3-7.5,20.5-8.1,25.4c0,0.2-0.5,1.1-2.3,1.1c-0.2,0-0.7-0.2-1.1-0.8c-0.6-0.8-0.9-1.9-0.7-2.8
		C216.9,113,209.5,83.7,197.2,71.4z"/>
	<path class="st0" d="M66.9,143.7c-3.9-1.2-7.1-2.8-8.8-5c-0.3-0.4-0.6-0.8-0.8-1.3c0.9-0.3,1.7-0.9,2.4-1.8c1-1.4,1.5-3.1,1.3-4.6
		c0.6,0,1.3,0.1,2.1,0.2c-0.3-1-0.5-2-0.7-3.1c-0.7-0.1-1.4-0.1-2.1-0.1c-3.4-17.2,3.8-44,14.9-54.8c0.3-0.3,0.4-0.6,0.5-1l0.3-5.5
		c0-0.8-0.5-1.5-1.3-1.6c-6.9-1.1-9.2-2.6-11.7-8.1c-0.2-0.5-0.6-0.8-1.1-0.8c-0.5-0.1-1,0.1-1.3,0.5l-1.9,2.1
		c-0.4,0.5-0.5,1.1-0.2,1.6c3,6.3,2.8,9.9,2.1,10.4c-0.3,0.2-2.2,0.1-6-3.7c-0.6-0.6-1.5-0.6-2.1,0l-2.7,2.7
		c-0.5,0.5-0.6,1.3-0.1,1.9c5.4,7.4,6.1,11.5,5,12.9c-0.7,0.9-3.3,1.3-8.2-0.6c-0.8-0.3-1.6,0-1.9,0.8l-1.3,3
		c-0.3,0.6-0.1,1.3,0.4,1.7c4.8,4.4,7.3,11.3,6,13.8c-0.5,1-1.9,1.2-3.9,0.7c-0.7-0.2-1.5,0.2-1.7,0.9l-1.1,2.7
		c-0.2,0.4-0.1,0.9,0.1,1.3c3.1,5.4,7.5,20.2,8.1,24.9c0.2,1.4,1.3,2.8,3.2,3.5c0.4,1.2,0.9,2.2,1.7,3.2c2.1,2.8,5.6,4.6,9.8,5.9
		C65.9,145.4,66.4,144.5,66.9,143.7z M45.7,108l0.4-0.9c3.8,0.5,5.4-1.3,6-2.5c2.3-4.3-1.2-11.9-5.8-16.6l0.3-0.8
		c4.9,1.7,8.5,1.5,10.3-0.8c2.3-2.9,0.8-8.2-4.2-15.4l0.7-0.7c3.8,3.5,6.7,4.5,8.8,3c2.3-1.6,2.3-5.9,0.1-11.4
		c2.6,3.8,5.8,5.1,10.6,6l-0.2,3.5C60.5,83.7,53.1,113,57.9,130.9c0.2,0.9,0,2-0.7,2.8c-0.4,0.5-0.9,0.8-1.1,0.8
		c-1.8,0-2.3-0.9-2.3-1.1C53.3,128.5,49.1,114.4,45.7,108z"/>
	<path class="st0" d="M210.1,166.3c-0.2-1-0.4-2-0.6-3c-0.8-4.1-1.9-8-3-11.5c-0.4-1.1-0.8-2.2-1.2-3.3c-0.3-0.7-0.6-1.4-0.9-2.1
		c-0.4-1-0.9-1.9-1.4-2.7c-0.7-1.2-1.3-2.2-2.1-3.1c2.9-2.7,4.6-6,5.5-9.5c0.3-1,0.5-2,0.6-3.1c0.4-2.7,0.5-5.4,0.5-8.1
		c0-16-12.9-31.4-26.7-38.9c1.3-1.8,2.2-3.9,2.2-6.5c0-6.8-3.2-11-5.6-14c-1.7-2.2-2.7-3.6-2.8-5.3c-0.1-0.8,0-1.6,0.3-2.6
		c0.2-0.8,0.2-1.6,0-2.3c-0.2-0.7-0.5-1.3-1-1.9c-1.1-1.1-2.6-1.6-4.1-1.3c-1.4,0.3-2.8,0.7-4.2,1.4c-0.4-3.6-1.1-7.1-1.9-10.1
		c-0.5-1.7-1.9-3-3.7-3.3c-1.8-0.3-3.5,0.5-4.5,2c-0.6,1-1.1,1.9-1.6,2.8c-0.5,1-1.4,2.5-1.9,3c-0.8-1.2-1.7-4.4-2.2-6
		c-0.2-0.9-0.5-1.7-0.7-2.4c-0.6-1.8-2.2-3-4-3.1c-1.9-0.1-3.6,0.9-4.4,2.6l-0.1,0.3c-2.4,5.2-4.2,8.1-5.4,8.7
		c-1.2-0.6-3-3.5-5.4-8.7l-0.1-0.3c-0.8-1.7-2.5-2.7-4.4-2.6c-1.9,0.1-3.4,1.4-4,3.1c-0.2,0.7-0.5,1.6-0.7,2.4
		c-0.5,1.6-1.4,4.8-2.2,6c-0.5-0.5-1.4-2.1-1.9-3c-0.5-0.9-1-1.8-1.6-2.8c-1-1.5-2.7-2.3-4.5-2c-1.8,0.3-3.2,1.6-3.7,3.3
		c-0.8,3-1.6,6.4-1.9,10.1c-1.4-0.7-2.8-1.2-4.2-1.4c-1.5-0.3-3.1,0.2-4.1,1.3c-0.5,0.5-0.9,1.2-1,1.9c-0.2,0.8-0.2,1.6,0,2.3
		c0.3,1,0.3,1.8,0.3,2.6c-0.2,1.7-1.1,3.1-2.8,5.3c-2.3,3.1-5.6,7.2-5.6,14c0,2.5,0.8,4.5,2,6.2c-14,7.4-27.2,23-27.2,39.2
		c0,2.7,0.1,5.4,0.6,8.1c0.2,1,0.4,2.1,0.7,3.1c1,3.6,2.7,6.8,5.7,9.6c-0.7,0.9-1.3,1.9-1.9,3c-0.5,0.8-0.9,1.8-1.4,2.7
		c-0.3,0.7-0.6,1.4-0.9,2.2c-0.4,1-0.8,2.1-1.2,3.3c-1.2,3.5-2.1,7.4-3,11.5c-0.2,1-0.4,2-0.6,3c-1.5,8.9-2.4,18.6-2.4,27.6
		c0,7.2,0.3,13.9,0.8,20.2c0.1,1,0.2,2,0.3,3c0.7,6.1,1.6,11.8,2.8,17.1c0.2,1.1,0.5,2.1,0.8,3.1c2.2,8.7,5.3,16.2,9.2,22.7
		c11.9,19.8,31.8,29.8,59.1,29.8c1.6,0,3.2-0.4,4.5-1.2c1.3,0.8,2.9,1.2,4.5,1.2c27.3,0,47.2-10,59.1-29.8c3.9-6.5,7-14,9.2-22.7
		c0.3-1,0.5-2.1,0.8-3.1c1.2-5.3,2.1-11,2.8-17.1c0.1-1,0.2-2,0.3-3c0.6-6.3,0.8-13,0.8-20.2C212.5,185,211.7,175.2,210.1,166.3z
		 M139.5,283.8c-1.7,0-3-1.3-3-3v-116c0-1.8,1.5-3.9,3.2-4.5c1.9-0.6,45.5-15,52.8-18c0.2-0.1,0.4-0.1,0.6-0.1
		c0.3,0,0.8,0.1,1.3,0.5c5.7,3.8,12,25.8,12,51.3C206.5,255.2,185.2,283.8,139.5,283.8z M133.5,280.8c0,1.7-1.3,3-3,3
		c-45.7,0-67-28.5-67-89.8c0-26,6-47.5,11.7-51.3c0.5-0.4,1-0.5,1.3-0.5c0.3,0,0.5,0.1,0.6,0.1c7.3,3,51,17.4,52.8,18
		c1.8,0.6,3.6,2.8,3.6,4.5V280.8z M130.9,157.5C130.9,157.5,130.9,157.5,130.9,157.5c-0.5-0.2-45.4-14.9-52.6-17.9
		c-7.8-3.2-10.4-8.2-10.4-19.6c0-13.4,12.4-29.4,27.7-35.6c3.8-1.5,6.1-2.1,8.2-2.1c1.7,0,3.3,0.4,5.5,0.9
		c4.5,1.1,11.2,2.7,25.7,2.7c14.6,0,21.1-1.6,25.5-2.7c4.6-1.1,6.4-1.6,13.3,1.2c15.3,6.2,27.7,22.2,27.7,35.6
		c0,10.2-1.6,16.1-10.1,19.6c0,0,0,0,0,0c-7.2,2.9-52.2,17.7-52.6,17.9c0,0,0,0,0,0C136.8,158.1,132.9,158.1,130.9,157.5z
		 M101.5,53.6c5,2.2,9.7,8.1,13.6,13.7c-4.9,3.2-5.5,7.2-5.5,9c0,1.5,0.3,2.9,0.8,4c-0.1,0-0.3-0.1-0.4-0.1c-4.4-1-6.9-1.6-12.5,0.2
		c-3-2-4.4-3.6-4.4-5.9c0-4.8,2.1-7.5,4.3-10.4C99.6,61.3,101.9,58.3,101.5,53.6z M168.5,53.6c-0.4,4.7,1.9,7.6,4.1,10.5
		c2.2,2.9,4.3,5.6,4.3,10.4c0,2.3-1.5,4-4.7,6c-5.8-2-8.2-1.4-12.5-0.4c0,0-0.1,0-0.1,0c0.5-1.2,0.7-2.5,0.7-3.9
		c0-1.8-0.6-5.8-5.5-9C158.8,61.7,163.5,55.8,168.5,53.6z M157.4,76.3c0,2.7-1.1,4.6-2.9,5.1c-4.1,0.8-10,1.4-19.3,1.4
		c-0.1,0-0.2,0-0.3,0c-0.1,0-0.2,0-0.3,0c-9,0-14.9-0.7-19.1-1.4c-1.9-0.4-3.1-2.4-3.1-5.1c0-6.4,8.4-10.3,22.4-10.3
		C149,66,157.4,69.9,157.4,76.3z M159.1,57.2c-2.5,2.7-4.8,5.8-6.9,8.7C148.5,64.2,143,63,135,63c-8,0-13.5,1.2-17.2,2.8
		c-2-2.9-4.3-6-6.8-8.7c-0.9-4.3-0.4-9.1,0.6-13.6c1.6,2.8,3.4,5.5,7.1,5.5c4.1,0,5.9-4.7,7.2-9.1c2.2,4.3,5.1,8.9,9.3,8.9
		c4.1,0,7.1-4.6,9.3-8.9c1.3,4.4,3.1,9.1,7.2,9.1c3.7,0,5.5-2.7,7.1-5.5C159.5,48,160,52.8,159.1,57.2z"/>
</g>
</svg>
