<?xml version="1.0" encoding="utf-8"?>
<!-- Generator: Adobe Illustrator 16.0.3, SVG Export Plug-In . SVG Version: 6.00 Build 0)  -->
<!DOCTYPE svg PUBLIC "-//W3C//DTD SVG 1.1//EN" "http://www.w3.org/Graphics/SVG/1.1/DTD/svg11.dtd">
<svg version="1.1" id="Layer_1" xmlns="http://www.w3.org/2000/svg" xmlns:xlink="http://www.w3.org/1999/xlink" x="0px" y="0px"
	 width="270px" height="342px" viewBox="0 0 270 342" enable-background="new 0 0 270 342" xml:space="preserve">
<path d="M135.002,337.5c-38.23,0-70.48-14.133-93.268-40.869C17.027,267.638,4.5,225.371,4.5,171.002
	c0-54.371,12.527-96.641,37.237-125.631C64.518,18.633,96.768,4.5,135.002,4.5c38.227,0,70.479,14.133,93.264,40.871
	c24.707,28.988,37.234,71.258,37.234,125.631c0,54.371-12.527,96.641-37.234,125.629C205.479,323.367,173.229,337.5,135.002,337.5
	L135.002,337.5z"/>
<path fill="none" stroke="#FFCC00" stroke-width="4.5" stroke-linecap="round" stroke-linejoin="round" d="M135.002,328.506
	c-35.723,0-65.764-13.096-86.877-37.869c-23.256-27.289-35.051-67.542-35.051-119.636c0-52.093,11.793-92.342,35.054-119.636
	c21.108-24.775,51.149-37.871,86.874-37.871c35.723,0,65.76,13.096,86.871,37.871c23.262,27.294,35.055,67.543,35.055,119.636
	c0,52.094-11.795,92.347-35.055,119.636C200.762,315.41,170.721,328.506,135.002,328.506L135.002,328.506z"/>
<path fill="#222222" stroke="#FFCC00" stroke-width="3" stroke-linecap="round" stroke-linejoin="round" d="M99.675,57.253
	c-3.028-2.019-13.84-16.104-12.225-18.931c1.614-2.826,5.335-3.285,8.76-3.504l0.767,4.49l-9.089,1.86"/>
<path fill="#222222" stroke="#FFCC00" stroke-width="3" stroke-linecap="round" stroke-linejoin="round" d="M170.329,57.253
	c3.026-2.019,13.84-16.104,12.225-18.931c-1.614-2.826-5.335-3.285-8.76-3.504l-0.769,4.49l9.091,1.86"/>
<path fill="#222222" stroke="#FFCC00" stroke-width="3" stroke-linecap="round" stroke-linejoin="round" d="M82.445,149.826
	c-13.667-0.791-30.234-0.897-30.234,10.969c0,7.323,17.28,1.376,32.878,6.835L82.445,149.826z"/>
<path fill="#222222" stroke="#FFCC00" stroke-width="3" stroke-linecap="round" stroke-linejoin="round" d="M51.85,156.746
	c-3.596,2.604-4.787,10.607-6.382,21.525c-1.274,8.726-3.733,27.875-0.003,40.85c2.061,7.157,1.965,14.734,5.264,18.119
	c3.297,3.384,11.715,7.534,9.799,4.305c-3.938-6.633-9.776-23.982-9.338-39.414c0.313-11.005,1.785-24.584,2.117-28.866
	c0.926-11.938,5.703-14.272,3.984-16.563C56.59,155.765,52.998,155.913,51.85,156.746z"/>
<path fill="#222222" stroke="#FFCC00" stroke-width="3" stroke-linecap="round" stroke-linejoin="round" d="M187.559,149.826
	c13.666-0.791,30.232-0.897,30.232,10.969c0,7.323-17.279,1.376-32.877,6.835L187.559,149.826z"/>
<path fill="#222222" stroke="#FFCC00" stroke-width="3" stroke-linecap="round" stroke-linejoin="round" d="M218.154,156.746
	c3.594,2.604,4.787,10.607,6.381,21.525c1.271,8.726,3.734,27.875,0.002,40.85c-2.059,7.157-1.965,14.734-5.262,18.119
	c-3.297,3.384-11.715,7.534-9.799,4.305c3.936-6.633,9.775-23.982,9.338-39.414c-0.313-11.005-1.785-24.584-2.119-28.866
	c-0.926-11.938-5.701-14.272-3.984-16.563C213.412,155.765,217.004,155.913,218.154,156.746z"/>
<path fill="#222222" stroke="#FFCC00" stroke-width="3" stroke-linecap="round" stroke-linejoin="round" d="M69.002,215.959
	c-13.667-1-30.234-1.134-30.234,13.866c0,9.257,17.28,1.739,32.879,8.64L69.002,215.959z"/>
<path fill="#222222" stroke="#FFCC00" stroke-width="3" stroke-linecap="round" stroke-linejoin="round" d="M37.639,231.56
	c-0.809,5.697,4.518,14.876,13.014,26.09c5.273,6.962,15.832,26.435,36.164,37.279c8.308,4.434,16.859,9.381,22.839,9.291
	c5.977-0.09,16.282-3.371,11.663-4.44c-9.487-2.2-32.838-9.588-45.745-24.402c-8.72-10.01-19.841-24.489-23.433-28.611
	c-10.01-11.488-8.798-17.119-12.39-17.542C38.285,229.05,37.896,229.739,37.639,231.56z"/>
<path fill="#222222" stroke="#FFCC00" stroke-width="3" stroke-linecap="round" stroke-linejoin="round" d="M201.002,215.959
	c13.666-1,30.232-1.134,30.232,13.866c0,9.257-17.279,1.739-32.877,8.64L201.002,215.959z"/>
<path fill="#222222" stroke="#FFCC00" stroke-width="3" stroke-linecap="round" stroke-linejoin="round" d="M232.363,231.56
	c0.809,5.697-4.518,14.876-13.012,26.09c-5.275,6.962-15.832,26.435-36.164,37.279c-8.311,4.434-16.861,9.381-22.838,9.291
	c-5.979-0.09-16.285-3.371-11.666-4.44c9.486-2.2,32.84-9.588,45.744-24.402c8.721-10.01,19.844-24.489,23.434-28.611
	c10.01-11.488,8.799-17.119,12.391-17.542C231.719,229.05,232.105,229.739,232.363,231.56z"/>
<path fill="#222222" stroke="#FFCC00" stroke-width="3" stroke-linecap="round" stroke-linejoin="round" d="M186.666,147.966
	c13.621-1.364,30-3.857,28.137-15.578c-1.146-7.23-17.281,1.354-33.543-1.589L186.666,147.966z"/>
<path fill="#222222" stroke="#FFCC00" stroke-width="3" stroke-linecap="round" stroke-linejoin="round" d="M83.337,147.966
	c-13.622-1.364-30-3.857-28.138-15.578c1.15-7.23,17.281,1.354,33.543-1.589L83.337,147.966z"/>
<path fill="#222222" stroke="#FFCC00" stroke-width="3" stroke-linecap="round" stroke-linejoin="round" d="M56.137,136.033
	c1.891,0,3.906-2.963,3.237-5.471c-4.821-18.096,3.119-47.23,14.851-58.512l0.336-5.471c-6.994-1.076-9.965-2.77-12.842-8.934
	l-1.896,2.123c5.25,10.902,2.646,17.385-6.364,8.375l-2.681,2.68c10.145,13.869,5.799,18.887-4.912,14.516l-1.34,3.016
	c7.135,6.551,10.574,19.452,0.67,17.084l-1.117,2.681c3.238,5.694,7.705,20.657,8.264,25.458
	C52.457,134.588,53.568,136.033,56.137,136.033z"/>
<path fill="#222222" stroke="#FFCC00" stroke-width="3" stroke-linecap="round" stroke-linejoin="round" d="M213.867,136.033
	c-1.893,0-3.906-2.963-3.238-5.471c4.82-18.096-3.119-47.23-14.852-58.512l-0.334-5.471c6.992-1.076,9.963-2.77,12.84-8.934
	l1.898,2.123c-5.25,10.902-2.646,17.385,6.363,8.375l2.682,2.68c-10.145,13.869-5.801,18.887,4.91,14.516l1.342,3.016
	c-7.135,6.551-10.572,19.452-0.67,17.084l1.115,2.681c-3.236,5.694-7.703,20.657-8.262,25.458
	C217.545,134.588,216.434,136.033,213.867,136.033z"/>
<path fill="none" stroke="#FFCC00" stroke-width="9" stroke-linecap="round" stroke-linejoin="round" d="M192.002,140.959
	c9.168-3.82,11-10.275,11-21c0-15.073-13.785-30.977-28.666-37c-0.675-0.273-1.295-0.509-1.888-0.726
	c3.934-2.434,5.97-4.554,5.97-7.691c0-11.167-10.75-12.667-8-23.083c-3.494,0.671-6.868,3.198-9.965,6.443
	c1.479-6.33-0.042-13.342-1.369-18.36c-2.416,3.833-3.582,8.083-7.666,8.083s-5.416-7.333-6.834-11.75
	c-2,4.333-5.25,11.583-9.582,11.583c-4.334,0-7.584-7.25-9.584-11.583c-1.416,4.417-2.75,11.75-6.833,11.75s-5.25-4.25-7.667-8.083
	c-1.326,5.019-2.847,12.03-1.368,18.358c-3.097-3.244-6.471-5.771-9.965-6.441c2.75,10.417-8,11.917-8,23.083
	c0,3.073,1.958,5.172,5.735,7.543c-0.721,0.253-1.478,0.533-2.318,0.874c-14.883,6.023-28.667,21.927-28.667,37
	c0,10.725,2.164,17.18,11.333,21c-7.332-3-15.666,22.666-15.666,53c0,48.148,12.54,91.334,68.5,91.334c2.475,0,4.5-2.025,4.5-4.5
	c0,2.475,2.025,4.5,4.5,4.5c55.959,0,68.5-43.186,68.5-91.334C208.002,163.625,199.334,137.959,192.002,140.959z"/>
<path fill="#222222" stroke="#FFCC00" stroke-width="3" stroke-linecap="round" stroke-linejoin="round" d="M149.752,72.292
	l6.666-6.583c6.916-7.5,4.584-18.917,2.666-26.167c-2.416,3.833-3.582,8.083-7.666,8.083s-5.416-7.333-6.834-11.75
	c-2,4.333-5.25,11.583-9.582,11.583c-4.334,0-7.584-7.25-9.584-11.583c-1.416,4.417-2.75,11.75-6.833,11.75s-5.25-4.25-7.667-8.083
	c-1.916,7.25-4.25,18.667,2.667,26.167l6.667,6.583H149.752z"/>
<path fill="#222222" stroke="#FFCC00" stroke-width="3" stroke-linecap="round" stroke-linejoin="round" d="M100.835,84.126
	c-6.083-3.333-9.25-5.667-9.25-9.583c0-11.167,10.75-12.667,8-23.083c8.25,1.583,15.833,13.5,20.667,20.833l-0.334,11.167
	L100.835,84.126z"/>
<path fill="#222222" stroke="#FFCC00" stroke-width="3" stroke-linecap="round" stroke-linejoin="round" d="M169.168,84.126
	c6.084-3.333,9.25-5.667,9.25-9.583c0-11.167-10.75-12.667-8-23.083c-8.25,1.583-15.834,13.5-20.666,20.833l0.332,11.167
	L169.168,84.126z"/>
<radialGradient id="SVGID_1_" cx="-1670.9985" cy="-106.707" r="14.7013" gradientTransform="matrix(1 0 0 1 1800 181)" gradientUnits="userSpaceOnUse">
	<stop  offset="0" style="stop-color:#555555"/>
	<stop  offset="1" style="stop-color:#222222"/>
</radialGradient>
<path fill="url(#SVGID_1_)" stroke="#FFCC00" stroke-width="3" stroke-linecap="round" stroke-linejoin="round" d="M135.002,84.292
	c9.285,0,15.357-0.483,19.633-1.404c2.453-0.526,4.283-2.905,4.283-6.596c0-6.366-6.922-11.75-23.916-11.75
	c-16.996,0-23.917,5.384-23.917,11.75c0,3.69,1.831,6.068,4.284,6.596C119.645,83.81,125.715,84.292,135.002,84.292z"/>
<radialGradient id="SVGID_2_" cx="-1695.9985" cy="-63.707" r="45.0098" gradientTransform="matrix(1 0 0 1 1800 181)" gradientUnits="userSpaceOnUse">
	<stop  offset="0" style="stop-color:#555555"/>
	<stop  offset="1" style="stop-color:#222222"/>
</radialGradient>
<path fill="url(#SVGID_2_)" stroke="#FFCC00" stroke-width="3" stroke-linecap="round" stroke-linejoin="round" d="M130.393,158.892
	c2.353,0.77,6.531,0.77,8.886,0c0,0,44.725-14.599,52.725-17.932c9.168-3.82,11-10.275,11-21c0-15.073-13.785-30.977-28.666-37
	c-14-5.667-9.002,1.333-39.334,1.333c-30.334,0-26-7-40-1.333c-14.883,6.023-28.667,21.927-28.667,37
	c0,10.725,2.164,17.18,11.333,21C85.668,144.293,130.393,158.892,130.393,158.892z"/>
<radialGradient id="SVGID_3_" cx="-1705.3315" cy="2.293" r="45.0127" gradientTransform="matrix(1 0 0 1 1800 181)" gradientUnits="userSpaceOnUse">
	<stop  offset="0" style="stop-color:#555555"/>
	<stop  offset="1" style="stop-color:#222222"/>
</radialGradient>
<path fill="url(#SVGID_3_)" stroke="#FFCC00" stroke-width="3" stroke-linecap="round" stroke-linejoin="round" d="M135.002,280.793
	c0,2.475-2.025,4.5-4.5,4.5c-55.96,0-68.5-43.186-68.5-91.334c0-30.334,8.334-56,15.666-53c7.334,3,52.725,17.932,52.725,17.932
	c2.351,0.772,4.603,3.429,4.609,5.901V280.793z"/>
<radialGradient id="SVGID_4_" cx="-1635.3311" cy="2.293" r="45.0117" gradientTransform="matrix(1 0 0 1 1800 181)" gradientUnits="userSpaceOnUse">
	<stop  offset="0" style="stop-color:#555555"/>
	<stop  offset="1" style="stop-color:#222222"/>
</radialGradient>
<path fill="url(#SVGID_4_)" stroke="#FFCC00" stroke-width="3" stroke-linecap="round" stroke-linejoin="round" d="M135.002,280.793
	c0,2.475,2.025,4.5,4.5,4.5c55.959,0,68.5-43.186,68.5-91.334c0-30.334-8.668-56-16-53c-7.334,3-52.725,17.932-52.725,17.932
	c-2.354,0.772-4.271,3.429-4.275,5.901V280.793z"/>
</svg>
