<svg xmlns="http://www.w3.org/2000/svg" width="270" height="342" viewBox="0 0 270 342"><style>.a{fill:#222;stroke-linejoin:round;stroke-width:3;stroke:#FC0;}.b{stop-color:#555;}.c{stop-color:#222;}</style><path d="M135 337.5c-38.2 0-70.5-14.1-93.3-40.9C17 267.6 4.5 225.4 4.5 171c0-54.4 12.5-96.6 37.2-125.6C64.5 18.6 96.8 4.5 135 4.5c38.2 0 70.5 14.1 93.3 40.9 24.7 29 37.2 71.3 37.2 125.6 0 54.4-12.5 96.6-37.2 125.6C205.5 323.4 173.2 337.5 135 337.5L135 337.5z"/><path d="M135 328.5c-35.7 0-65.8-13.1-86.9-37.9 -23.3-27.3-35.1-67.5-35.1-119.6 0-52.1 11.8-92.3 35.1-119.6 21.1-24.8 51.1-37.9 86.9-37.9 35.7 0 65.8 13.1 86.9 37.9 23.3 27.3 35.1 67.5 35.1 119.6 0 52.1-11.8 92.3-35.1 119.6C200.8 315.4 170.7 328.5 135 328.5L135 328.5z" style="fill:none;stroke-linejoin:round;stroke-width:5;stroke:#FC0"/><path d="M99.7 57.3c-3-2-13.8-16.1-12.2-18.9 1.6-2.8 5.3-3.3 8.8-3.5l0.8 4.5 -9.1 1.9" class="a"/><path d="M170.3 57.3c3-2 13.8-16.1 12.2-18.9 -1.6-2.8-5.3-3.3-8.8-3.5l-0.8 4.5 9.1 1.9" class="a"/><path d="M82.4 149.8c-13.7-0.8-30.2-0.9-30.2 11 0 7.3 17.3 1.4 32.9 6.8L82.4 149.8z" class="a"/><path d="M51.9 156.7c-3.6 2.6-4.8 10.6-6.4 21.5 -1.3 8.7-3.7 27.9 0 40.9 2.1 7.2 2 14.7 5.3 18.1 3.3 3.4 11.7 7.5 9.8 4.3 -3.9-6.6-9.8-24-9.3-39.4 0.3-11 1.8-24.6 2.1-28.9 0.9-11.9 5.7-14.3 4-16.6C56.6 155.8 53 155.9 51.9 156.7z" class="a"/><path d="M187.6 149.8c13.7-0.8 30.2-0.9 30.2 11 0 7.3-17.3 1.4-32.9 6.8L187.6 149.8z" class="a"/><path d="M218.2 156.7c3.6 2.6 4.8 10.6 6.4 21.5 1.3 8.7 3.7 27.9 0 40.9 -2.1 7.2-2 14.7-5.3 18.1 -3.3 3.4-11.7 7.5-9.8 4.3 3.9-6.6 9.8-24 9.3-39.4 -0.3-11-1.8-24.6-2.1-28.9 -0.9-11.9-5.7-14.3-4-16.6C213.4 155.8 217 155.9 218.2 156.7z" class="a"/><path d="M69 216c-13.7-1-30.2-1.1-30.2 13.9 0 9.3 17.3 1.7 32.9 8.6L69 216z" class="a"/><path d="M37.6 231.6c-0.8 5.7 4.5 14.9 13 26.1 5.3 7 15.8 26.4 36.2 37.3 8.3 4.4 16.9 9.4 22.8 9.3 6-0.1 16.3-3.4 11.7-4.4 -9.5-2.2-32.8-9.6-45.7-24.4 -8.7-10-19.8-24.5-23.4-28.6 -10-11.5-8.8-17.1-12.4-17.5C38.3 229.1 37.9 229.7 37.6 231.6z" class="a"/><path d="M201 216c13.7-1 30.2-1.1 30.2 13.9 0 9.3-17.3 1.7-32.9 8.6L201 216z" class="a"/><path d="M232.4 231.6c0.8 5.7-4.5 14.9-13 26.1 -5.3 7-15.8 26.4-36.2 37.3 -8.3 4.4-16.9 9.4-22.8 9.3 -6-0.1-16.3-3.4-11.7-4.4 9.5-2.2 32.8-9.6 45.7-24.4 8.7-10 19.8-24.5 23.4-28.6 10-11.5 8.8-17.1 12.4-17.5C231.7 229.1 232.1 229.7 232.4 231.6z" class="a"/><path d="M186.7 148c13.6-1.4 30-3.9 28.1-15.6 -1.1-7.2-17.3 1.4-33.5-1.6L186.7 148z" class="a"/><path d="M83.3 148c-13.6-1.4-30-3.9-28.1-15.6 1.2-7.2 17.3 1.4 33.5-1.6L83.3 148z" class="a"/><path d="M56.1 136c1.9 0 3.9-3 3.2-5.5 -4.8-18.1 3.1-47.2 14.9-58.5l0.3-5.5c-7-1.1-10-2.8-12.8-8.9l-1.9 2.1c5.3 10.9 2.6 17.4-6.4 8.4l-2.7 2.7c10.1 13.9 5.8 18.9-4.9 14.5l-1.3 3c7.1 6.6 10.6 19.5 0.7 17.1l-1.1 2.7c3.2 5.7 7.7 20.7 8.3 25.5C52.5 134.6 53.6 136 56.1 136z" class="a"/><path d="M213.9 136c-1.9 0-3.9-3-3.2-5.5 4.8-18.1-3.1-47.2-14.9-58.5l-0.3-5.5c7-1.1 10-2.8 12.8-8.9l1.9 2.1c-5.2 10.9-2.6 17.4 6.4 8.4l2.7 2.7c-10.1 13.9-5.8 18.9 4.9 14.5l1.3 3c-7.1 6.6-10.6 19.5-0.7 17.1l1.1 2.7c-3.2 5.7-7.7 20.7-8.3 25.5C217.5 134.6 216.4 136 213.9 136z" class="a"/><path d="M192 141c9.2-3.8 11-10.3 11-21 0-15.1-13.8-31-28.7-37 -0.7-0.3-1.3-0.5-1.9-0.7 3.9-2.4 6-4.6 6-7.7 0-11.2-10.7-12.7-8-23.1 -3.5 0.7-6.9 3.2-10 6.4 1.5-6.3 0-13.3-1.4-18.4 -2.4 3.8-3.6 8.1-7.7 8.1s-5.4-7.3-6.8-11.7c-2 4.3-5.2 11.6-9.6 11.6 -4.3 0-7.6-7.2-9.6-11.6 -1.4 4.4-2.7 11.8-6.8 11.8s-5.2-4.2-7.7-8.1c-1.3 5-2.8 12-1.4 18.4 -3.1-3.2-6.5-5.8-10-6.4 2.8 10.4-8 11.9-8 23.1 0 3.1 2 5.2 5.7 7.5 -0.7 0.3-1.5 0.5-2.3 0.9 -14.9 6-28.7 21.9-28.7 37 0 10.7 2.2 17.2 11.3 21 -7.3-3-15.7 22.7-15.7 53 0 48.1 12.5 91.3 68.5 91.3 2.5 0 4.5-2 4.5-4.5 0 2.5 2 4.5 4.5 4.5 56 0 68.5-43.2 68.5-91.3C208 163.6 199.3 138 192 141z" style="fill:none;stroke-linejoin:round;stroke-width:9;stroke:#FC0"/><path d="M149.8 72.3l6.7-6.6c6.9-7.5 4.6-18.9 2.7-26.2 -2.4 3.8-3.6 8.1-7.7 8.1s-5.4-7.3-6.8-11.7c-2 4.3-5.2 11.6-9.6 11.6 -4.3 0-7.6-7.2-9.6-11.6 -1.4 4.4-2.7 11.8-6.8 11.8s-5.2-4.2-7.7-8.1c-1.9 7.3-4.2 18.7 2.7 26.2l6.7 6.6H149.8z" class="a"/><path d="M100.8 84.1c-6.1-3.3-9.2-5.7-9.2-9.6 0-11.2 10.8-12.7 8-23.1 8.3 1.6 15.8 13.5 20.7 20.8l-0.3 11.2L100.8 84.1z" class="a"/><path d="M169.2 84.1c6.1-3.3 9.3-5.7 9.3-9.6 0-11.2-10.7-12.7-8-23.1 -8.2 1.6-15.8 13.5-20.7 20.8l0.3 11.2L169.2 84.1z" class="a"/><radialGradient cx="-1671" cy="-106.7" r="14.7" gradientTransform="matrix(1 0 0 1 1800 181)" gradientUnits="userSpaceOnUse"><stop offset="0" class="b"/><stop offset="1" class="c"/></radialGradient><path d="M135 84.3c9.3 0 15.4-0.5 19.6-1.4 2.5-0.5 4.3-2.9 4.3-6.6 0-6.4-6.9-11.7-23.9-11.7 -17 0-23.9 5.4-23.9 11.8 0 3.7 1.8 6.1 4.3 6.6C119.6 83.8 125.7 84.3 135 84.3z" style="fill:url(#SVGID_1_);stroke-linejoin:round;stroke-width:3;stroke:#FC0"/><radialGradient cx="-1696" cy="-63.7" r="45" gradientTransform="matrix(1 0 0 1 1800 181)" gradientUnits="userSpaceOnUse"><stop offset="0" class="b"/><stop offset="1" class="c"/></radialGradient><path d="M130.4 158.9c2.4 0.8 6.5 0.8 8.9 0 0 0 44.7-14.6 52.7-17.9 9.2-3.8 11-10.3 11-21 0-15.1-13.8-31-28.7-37 -14-5.7-9 1.3-39.3 1.3 -30.3 0-26-7-40-1.3 -14.9 6-28.7 21.9-28.7 37 0 10.7 2.2 17.2 11.3 21C85.7 144.3 130.4 158.9 130.4 158.9z" style="fill:url(#SVGID_2_);stroke-linejoin:round;stroke-width:3;stroke:#FC0"/><radialGradient cx="-1705.3" cy="2.3" r="45" gradientTransform="matrix(1 0 0 1 1800 181)" gradientUnits="userSpaceOnUse"><stop offset="0" class="b"/><stop offset="1" class="c"/></radialGradient><path d="M135 280.8c0 2.5-2 4.5-4.5 4.5 -56 0-68.5-43.2-68.5-91.3 0-30.3 8.3-56 15.7-53 7.3 3 52.7 17.9 52.7 17.9 2.4 0.8 4.6 3.4 4.6 5.9V280.8z" style="fill:url(#SVGID_3_);stroke-linejoin:round;stroke-width:3;stroke:#FC0"/><radialGradient cx="-1635.3" cy="2.3" r="45" gradientTransform="matrix(1 0 0 1 1800 181)" gradientUnits="userSpaceOnUse"><stop offset="0" class="b"/><stop offset="1" class="c"/></radialGradient><path d="M135 280.8c0 2.5 2 4.5 4.5 4.5 56 0 68.5-43.2 68.5-91.3 0-30.3-8.7-56-16-53 -7.3 3-52.7 17.9-52.7 17.9 -2.4 0.8-4.3 3.4-4.3 5.9V280.8z" style="fill:url(#SVGID_4_);stroke-linejoin:round;stroke-width:3;stroke:#FC0"/></svg>