<?xml version="1.0" encoding="utf-8"?>
<!-- Generator: Adobe Illustrator 16.2.0, SVG Export Plug-In . SVG Version: 6.00 Build 0)  -->
<!DOCTYPE svg PUBLIC "-//W3C//DTD SVG 1.1//EN" "http://www.w3.org/Graphics/SVG/1.1/DTD/svg11.dtd">
<svg version="1.1" id="Layer_1" xmlns="http://www.w3.org/2000/svg" xmlns:xlink="http://www.w3.org/1999/xlink" x="0px" y="0px"
	 width="864px" height="1080px" viewBox="0 0 864 1080" enable-background="new 0 0 864 1080" xml:space="preserve">
<path fill="#231F20" d="M711.789,157.579C643.579,77.684,546.947,35.368,432,35.368S220.421,77.684,152.21,157.579
	C77.684,245.053,39.789,373.895,39.789,540S77.684,834.947,152.21,922.421c68.211,79.895,164.843,122.211,279.79,122.211
	s211.579-42.315,279.789-122.211C786.315,834.947,824.211,706.105,824.211,540S786.315,245.053,711.789,157.579z M701.053,913.264
	C635.685,990,542.842,1030.421,432,1030.421c-110.526,0-203.685-40.421-269.053-117.157C90.631,828.315,54,702.632,54,540
	s36.632-288.316,108.947-373.263C228.315,90.316,321.474,49.579,432,49.579S635.685,90,701.053,166.737
	C773.368,251.684,810,377.053,810,540C810,702.632,773.368,828.315,701.053,913.264z"/>
<path fill="#231F20" d="M743.314,730.105c-0.315-2.21-0.947-6.632-3.789-9.157c-0.947-12.316-5.053-22.105-12.947-29.369
	c-1.896-1.895-4.105-3.474-6.632-5.053c6.947-29.368,6.315-70.421-1.579-124.736c-5.368-35.685-9.158-61.579-22.105-71.053
	c-0.947-0.632-2.526-1.264-4.105-1.895c-1.579-2.211-3.157-4.421-5.368-6.316c-8.16-7.532-20.065-11.631-33.853-13.852
	c-0.901-2.104-1.804-4.209-2.705-6.314c13.181-4.097,23.917-10.023,30.716-18.676c2.526-3.158,4.105-6.632,5.369-10.105
	c6-1.895,9.474-6.315,10.105-11.053c1.578-14.842,15.789-61.579,25.578-78.632c0.632-1.263,0.947-2.842,0.316-4.105l-3.474-8.526
	c-0.947-2.21-3.158-3.474-5.369-2.842c-6.631,1.579-10.736,0.948-12.315-2.21c-4.105-7.895,3.789-29.684,18.947-43.579
	c1.579-1.263,1.895-3.474,1.264-5.369l-4.105-9.474c-0.947-2.21-3.79-3.474-6-2.526c-15.158,6.316-23.368,5.053-25.895,1.895
	c-3.158-4.105-0.947-17.369,15.789-40.737c1.264-1.895,1.264-4.421-0.632-6l-8.526-8.526c-1.895-1.895-4.736-1.895-6.631,0
	c-12,12-18,12.632-18.947,11.685c-2.526-1.579-2.843-12.947,6.631-32.842c0.947-1.579,0.632-3.79-0.631-5.368l-6-6.632
	c-0.947-1.263-2.526-1.895-4.105-1.579c-1.579,0.315-2.842,1.263-3.474,2.526c-7.896,17.053-15.158,22.105-36.947,25.579
	c-2.526,0.316-4.105,2.526-4.105,5.053l0.947,17.368c0,1.263,0.632,2.21,1.579,3.158c35.368,34.105,57.789,118.737,47.053,173.052
	c-2.526,0-5.369,0-8.526,0.316h-0.421c1.264-8.527,1.579-17.053,1.579-25.579c0-50.526-40.736-99.158-84.315-122.842
	c4.105-5.684,6.947-12.316,6.947-20.526c0-21.474-10.105-34.737-17.685-44.21c-5.368-6.947-8.526-11.369-8.842-16.737
	c-0.004-0.033-0.006-0.067-0.01-0.1c14.21-16.126,35.27-45.394,29.281-55.479c-6.316-11.053-19.579-12.631-31.579-13.579
	c-2.526,0-4.421,1.579-5.053,3.79l-2.526,14.21c-0.315,2.526,1.264,5.053,3.789,5.369l23.053,4.737
	c-3.701,7.095-10.114,16.296-16.296,24.666c-0.624-1.829-1.513-3.458-2.87-5.087c-3.474-3.474-8.21-5.053-12.947-4.105
	c-4.421,0.947-8.842,2.21-13.263,4.421c-1.264-11.368-3.474-22.421-6-31.895c-1.579-5.369-6-9.474-11.685-10.421
	c-5.684-0.948-11.053,1.579-14.21,6.315c-1.896,3.158-3.474,6-5.053,8.842c-1.579,3.158-4.421,7.895-6,9.474
	c-2.526-3.79-5.369-13.895-6.947-18.947c-0.632-2.842-1.579-5.369-2.211-7.579c-1.895-5.684-6.947-9.474-12.632-9.79
	c-6-0.315-11.368,2.842-13.895,8.21l-0.315,0.948c-7.579,16.421-13.264,25.579-17.053,27.474
	c-3.79-1.895-9.474-11.053-17.053-27.474l-0.315-0.948c-2.526-5.368-7.896-8.526-13.896-8.21c-6,0.316-10.736,4.421-12.631,9.79
	c-0.632,2.21-1.579,5.053-2.211,7.579c-1.579,5.053-4.421,15.158-6.947,18.947c-1.579-1.579-4.421-6.631-6-9.474
	s-3.158-5.684-5.053-8.842c-3.158-4.737-8.526-7.263-14.211-6.315c-5.684,0.947-10.104,5.052-11.684,10.421
	c-2.526,9.474-5.053,20.21-6,31.895c-4.421-2.21-8.842-3.79-13.264-4.421c-4.736-0.947-9.789,0.631-12.947,4.105
	c-1.218,1.217-2.242,2.812-2.794,4.492c-6.035-8.198-12.22-17.115-15.827-24.031l23.053-4.737c2.526-0.632,4.105-2.842,3.789-5.369
	l-2.526-14.21c-0.315-2.526-2.526-4.105-5.053-3.79c-12,0.632-25.263,2.526-31.579,13.579c-5.6,9.955,14.539,38.595,28.726,54.842
	c0.001,0.232,0.001,0.465,0.001,0.697c-0.632,5.368-3.475,9.79-8.843,16.737c-7.263,9.789-17.684,22.737-17.684,44.21
	c0,7.895,2.525,14.21,6.315,19.579c-44.211,23.369-85.895,72.632-85.895,123.79c0,8.526,0.315,17.053,1.895,25.58
	c0.001,0.007,0.003,0.015,0.004,0.022c-2.172-0.297-4.579-0.338-6.74-0.338c-10.737-54.316,12-138.948,47.052-173.053
	c0.948-0.947,1.263-1.895,1.579-3.158l0.947-17.369c0-2.526-1.579-4.737-4.105-5.052c-21.79-3.474-29.053-8.211-36.947-25.579
	c-0.632-1.579-1.895-2.526-3.474-2.526c-1.579-0.316-3.158,0.316-4.105,1.579l-6,6.631c-1.263,1.579-1.579,3.474-0.632,5.053
	c9.474,19.895,8.842,31.263,6.632,32.842c-0.947,0.631-6.947,0.315-18.947-11.685c-1.895-1.895-4.737-1.895-6.632,0l-8.526,8.526
	c-1.579,1.579-1.895,4.105-0.315,6c17.052,23.369,19.263,36.316,15.789,40.737c-2.21,2.842-10.421,4.105-25.895-1.895
	c-2.526-0.947-5.053,0-6,2.526l-4.105,9.474c-0.947,1.895-0.315,4.105,1.263,5.368c15.158,13.895,23.053,35.685,18.948,43.579
	c-1.579,3.158-6,3.79-12.316,2.21c-2.21-0.631-4.737,0.632-5.369,2.842l-3.474,8.526c-0.631,1.263-0.316,2.842,0.316,4.105
	c9.79,17.053,23.684,63.79,25.579,78.632c0.631,4.421,4.105,8.842,10.105,11.053c1.263,3.789,2.842,6.947,5.369,10.105
	c6.489,8.652,17.218,14.276,30.103,18.36c-0.104,0.195-0.207,0.393-0.314,0.586c-0.875,2.043-1.75,4.096-2.625,6.387
	c-13.385,1.923-25.202,6.017-33.005,13.508c-2.21,1.895-3.789,4.104-5.368,6.315c-1.579,0.632-3.158,1.263-4.105,1.895
	c-12.947,9.474-16.737,35.368-22.105,71.053c-7.895,53.685-8.21,95.368-1.579,124.737c-2.21,1.578-4.421,3.157-6.631,5.053
	c-7.895,7.263-12.316,17.052-12.948,29.368c-2.842,2.526-3.474,6.947-3.789,9.157c-2.526,17.685,10.421,44.211,42,85.896
	c2.842,3.789,6,8.526,9.789,14.21c19.263,28.421,51.474,75.79,105.79,104.843l7.579,4.104c24.632,13.264,48,25.896,66.315,25.896
	c0.316,0,0.316,0,0.632,0c8.842,0,43.895-5.369,45.158-15.79c0.315-2.21-0.316-6-7.264-7.579
	c-9.789-2.21-96.631-23.684-142.105-75.474c-16.737-19.263-36-43.263-51.474-62.842c-10.105-12.632-18-22.421-22.421-27.789
	c-10.421-12-16.737-21.79-21.158-29.685c1.895,0,3.79,0.315,5.684,0.315c1.263,2.211,2.526,4.105,4.105,5.685
	c5.369,5.368,23.684,18.632,33.474,18.632c1.579,0,3.158-0.316,4.105-1.264c0.947-0.631,4.105-3.789,0.631-9.474
	c-1.895-3.157-4.105-7.263-6-12c2.149,0.27,4.08,0.538,6.161,0.806c0.139,0.469,0.277,0.938,0.417,1.405
	c6.947,27.474,16.736,51.157,29.053,71.684c37.578,62.526,100.421,94.105,186.632,94.105c5.052,0,10.104-1.263,14.21-3.789
	c4.105,2.526,9.158,3.789,14.211,3.789c86.21,0,149.053-31.579,186.631-94.105c12.316-20.526,22.105-44.21,29.053-71.684
	c0.049-0.164,0.09-0.337,0.138-0.502c1.948-0.254,3.78-0.508,5.809-0.761c-2.211,4.736-4.105,8.526-6,12
	c-3.474,5.684-0.315,8.842,0.632,9.474c0.947,0.947,2.526,1.263,4.104,1.263c9.79,0,28.105-12.947,33.474-18.632
	c1.579-1.578,2.843-3.474,4.105-5.684c1.896,0,3.79,0,5.685-0.316c-4.421,7.896-10.737,17.685-21.158,29.685
	c-4.421,5.053-12.315,15.158-22.421,27.474c-15.474,19.579-34.736,43.579-51.474,62.842C569.63,918.316,482.473,939.79,472.683,942
	c-6.947,1.579-7.579,5.369-7.263,7.579c1.263,10.421,36.315,15.79,45.158,15.79c0.315,0,0.315,0,0.631,0
	c18.316,0,41.685-12.632,66.316-25.896l7.578-4.104c54.316-29.053,86.526-76.422,105.79-104.843
	c3.789-5.684,7.263-10.421,9.789-14.21C732.894,774.632,745.841,748.105,743.314,730.105z M556.64,120.316l0.947-5.369
	c8.211,0.632,16.105,2.526,19.579,8.21c0,0.316,0,0.948,0,1.263L556.64,120.316z M287.379,122.882
	c3.474-5.684,11.052-7.263,19.579-8.21l0.948,5.369l-20.526,4.105C287.379,123.514,287.379,123.198,287.379,122.882z
	 M680.473,497.685c2.21-0.947,9.157-0.315,10.736,0.947c9.79,7.264,13.579,33.79,18.316,64.737
	c7.578,51.157,8.21,90.947,2.21,119.053c-4.105-1.579-8.842-2.843-13.579-4.105c1.896-13.264,2.843-27.158,2.526-40.421
	c-0.631-26.843-3.789-58.737-5.368-78c-0.632-5.685-0.947-10.422-1.263-13.579c-1.579-22.105-7.579-34.737-11.053-42
	C681.104,500.211,680.156,498.316,680.473,497.685z M684.262,547.264c0.316,3.158,0.632,7.895,1.264,13.579
	c1.895,18.947,4.736,50.842,5.368,77.368c0.315,12.632-0.632,25.895-2.526,38.842c-4.418-0.588-9.382-0.899-14.13-0.939
	c1.872-19.806,2.5-40.861,2.5-63.481c-0.947-28.421-3.474-59.368-8.526-87.474c-0.021-0.104-0.041-0.207-0.063-0.31
	c4.286-0.31,8.322-0.654,12.008-1.269C682.051,529.579,683.63,537.158,684.262,547.264z M626.631,225.474l-0.632-11.053
	c15.158-2.842,25.264-6.947,33.475-18.947c-6.948,17.684-6.948,30.947,0.315,36c6.632,4.737,15.789,1.263,27.789-9.474l2.211,2.21
	c-15.79,22.737-20.526,39.474-13.264,48.632c5.685,7.263,17.053,7.895,32.526,2.526l0.947,2.526
	c-14.842,14.842-25.578,39.158-18.315,52.421c1.895,3.79,6.947,9.474,18.947,7.895l1.264,2.842
	c-10.421,19.895-23.685,64.736-25.579,80.211c0,0.631-1.579,3.474-7.264,3.474c-0.631,0-2.21-0.632-3.474-2.526
	c-1.895-2.526-2.842-6-2.21-8.843C688.842,356.842,665.474,264.316,626.631,225.474z M664.21,413.685
	c-0.632,5.053,0.947,10.421,4.105,14.526c2.21,2.842,4.736,4.736,7.579,5.684c-0.632,1.264-1.579,2.843-2.526,4.105
	c-5.552,7.095-15.329,12.075-27.551,15.835c-0.009-0.015-0.019-0.031-0.027-0.046c-2.211-3.789-4.105-6.947-6.632-9.789
	c9.093-8.465,14.446-18.798,17.304-29.763C659.305,413.951,661.896,413.685,664.21,413.685z M536.842,169.263
	c-1.263,14.842,6,24,12.948,33.158c6.947,9.158,13.578,17.685,13.578,32.842c0,7.263-4.736,12.631-14.842,18.947
	c-18.315-6.316-25.895-4.421-39.474-1.263h-0.315c1.579-3.79,2.21-7.895,2.21-12.315c0-5.685-1.895-18.316-17.368-28.421
	C506.211,194.842,521.053,176.21,536.842,169.263z M501.789,240.947c0,8.526-3.474,14.526-9.157,16.105
	c-12.947,2.526-31.579,4.421-60.947,4.421c-0.316,0-0.632,0-0.947,0c-0.316,0-0.632,0-0.948,0c-28.421,0-47.052-2.21-60.315-4.421
	c-6-1.263-9.789-7.579-9.789-16.105c0-20.21,26.526-32.526,70.736-32.526C475.264,208.421,501.789,220.737,501.789,240.947z
	 M357.158,137.368c5.053,8.842,10.736,17.369,22.421,17.369c12.947,0,18.632-14.842,22.737-28.737
	c6.947,13.579,16.104,28.105,29.368,28.105c12.947,0,22.421-14.526,29.368-28.105c4.105,13.895,9.789,28.737,22.736,28.737
	c11.685,0,17.369-8.526,22.422-17.369c2.21,14.211,3.789,29.369,0.947,43.264c-7.895,8.526-15.158,18.315-21.79,27.474
	c-11.684-5.369-29.052-9.158-54.315-9.158s-42.632,3.79-54.315,8.842c-6.316-9.158-13.579-18.947-21.474-27.474
	C352.421,166.737,354,151.579,357.158,137.368z M312.315,202.421c6.948-8.842,14.211-18.315,12.948-33.158
	c15.789,6.947,30.631,25.579,42.947,43.263c-15.474,10.105-17.369,22.737-17.369,28.421c0,4.737,0.948,9.158,2.526,12.632
	c-0.315,0-0.947-0.316-1.263-0.316c-13.895-3.158-21.79-5.053-39.474,0.631c-9.474-6.315-13.896-11.368-13.896-18.631
	C298.736,220.105,305.368,211.579,312.315,202.421z M183.054,424.422c-5.685,0-7.263-2.843-7.263-3.474
	c-1.579-15.475-14.842-60-25.579-80.211l1.263-2.842c12,1.579,17.053-4.105,18.947-7.895c7.263-13.579-3.79-37.579-18.316-52.421
	l0.948-2.526c15.474,5.369,26.842,4.737,32.526-2.526c7.264-9.158,2.526-25.895-13.263-48.632l2.21-2.21
	c12,11.053,21.158,14.21,27.79,9.474c7.263-5.053,7.263-18.631,0.315-36c8.211,12,18.316,16.105,33.474,18.947l-0.631,11.053
	C196.948,264,173.58,356.527,188.738,413.053c0.631,2.843,0,6.316-2.21,8.843C185.264,423.474,183.685,424.422,183.054,424.422z
	 M189.369,437.685c-0.947-1.263-1.895-2.526-2.526-4.105c2.842-0.947,5.368-2.842,7.579-5.684c3.158-4.422,4.737-9.79,4.105-14.526
	c1.847,0,4.279,0.339,6.741,0.649c3.159,11.361,8.526,21.46,17.995,30.297c-2.161,2.78-4.021,5.866-5.875,9.25
	C205.21,449.784,194.691,444.571,189.369,437.685z M155.422,563.685c4.421-30.947,8.526-57.79,18.315-64.737
	c0.947-0.947,4.421-1.263,7.263-1.263c1.579,0,2.842,0,3.79,0.315c0.316,0.947-0.631,2.526-2.526,6.632
	c-3.474,7.263-9.474,19.895-11.053,42c-0.315,3.157-0.631,7.895-1.263,13.579c-1.895,18.947-4.737,50.842-5.369,77.684
	c-0.316,13.264,0.631,27.158,2.842,40.422c-4.737,0.947-9.158,2.21-13.579,4.104C147.211,654.632,147.843,614.842,155.422,563.685z
	 M189.767,676.121c-4.983,0.038-9.703,0.341-14.134,0.932c-1.895-12.947-3.158-26.211-2.526-38.842
	c0.631-26.526,3.79-58.105,5.368-77.053c0.632-6,0.948-10.737,1.263-13.895c0.632-9.79,2.526-17.369,4.105-23.685
	c3.318,0.604,7.213,0.918,11.133,1.22c-0.045,0.225-0.09,0.45-0.135,0.674c-4.736,28.105-7.579,58.737-7.579,87.158
	C187.263,635.255,188.203,656.313,189.767,676.121z M168.054,782.211c4.421,5.052,12.631,15.474,22.105,27.474
	c15.79,19.579,35.052,43.579,51.79,63.157c42.315,48.632,117.157,71.053,141.789,77.369c-7.263,2.842-20.21,5.684-30.632,6h-0.315
	c-15.789,0-39.158-12.632-61.895-24.632l-7.579-4.105c-52.105-28.105-83.684-74.526-102.316-102.315
	c-3.79-5.685-7.263-10.737-10.105-14.526c-29.053-38.526-42.316-64.105-40.105-78.947c0.316-1.896,0.632-2.843,0.632-3.474
	c0.315,0,0.315,0,0.631,0c2.526,0.315,3.474,2.21,7.263,10.104C143.738,747.789,150.685,762,168.054,782.211z M171.843,747.158
	c4.421,0,8.842,0.315,13.579,0.631c1.895,4.422,3.789,8.526,5.368,12C185.106,756.947,177.211,751.895,171.843,747.158z
	 M167.738,737.685c-7.895,0-14.21-0.316-19.263-0.948c-0.315-0.631-0.631-1.578-0.947-2.21c-3.79-7.895-6.631-13.579-13.263-15.158
	c0.947-8.526,4.105-15.474,9.79-20.526c10.239-9.619,27.193-12.828,46.654-13.236c0.009,0.096,0.019,0.192,0.029,0.289
	c2.189,19.077,5.001,36.911,8.736,53.51C188.291,737.987,177.431,737.685,167.738,737.685z M196.886,515.331
	c-3.842-0.276-6.854-0.306-9.569-0.91c0.947-2.21,1.895-4.421,2.842-6c2.842-6,5.368-11.368,1.263-16.736
	c-1.263-1.896-3.79-2.843-6.316-3.474c5.263-4.335,12.659-7.146,21.279-9.04c-0.059,0.173-0.117,0.338-0.175,0.513
	C202.487,490.544,199.678,502.629,196.886,515.331z M426.316,886.736c0,5.369-4.105,9.475-9.475,9.475
	c-144.315,0-211.579-90-211.579-283.579c0-82.105,18.947-150,36.947-162c1.579-1.264,3.158-1.579,4.105-1.579
	s1.579,0.315,1.895,0.315c23.053,9.474,161.054,54.947,166.737,56.843c5.685,1.895,11.369,8.842,11.369,14.21V886.736z
	 M418.105,497.368c-1.579-0.631-143.369-47.053-166.105-56.526c-24.632-10.104-32.842-25.895-32.842-61.895
	c0-42.315,39.157-92.842,87.474-112.421c12-4.737,19.263-6.632,25.895-6.632c5.368,0,10.421,1.264,17.368,2.842
	c14.211,3.474,35.369,8.526,81.158,8.526c46.105,0,66.632-5.053,80.526-8.526c14.526-3.474,20.21-5.053,42,3.79
	c48.315,19.579,87.474,70.105,87.474,112.421c0,32.211-5.053,50.842-31.895,61.895c-22.737,9.158-164.843,55.896-166.105,56.526
	C436.737,499.264,424.421,499.264,418.105,497.368z M445.264,896.211c-5.369,0-9.475-4.105-9.475-9.475V520.421
	c0-5.685,4.737-12.315,10.105-14.21c6-1.896,143.685-47.369,166.737-56.843c0.632-0.315,1.263-0.315,1.895-0.315
	c0.947,0,2.526,0.315,4.105,1.579c18,12,37.895,81.474,37.895,162C656.842,805.895,589.579,896.211,445.264,896.211z
	 M656.842,479.368c-0.03-0.084-0.062-0.169-0.092-0.253c9.03,1.895,16.518,4.72,22.144,9.096c-2.842,0.632-5.053,1.579-6.315,3.474
	c-4.105,5.368-1.579,10.737,1.263,16.737c0.947,1.895,1.895,3.789,2.842,6c-2.746,0.305-6.483,0.615-10.437,0.921
	C663.726,502.521,660.285,490.323,656.842,479.368z M673.525,759.158c1.895-3.474,3.474-7.579,5.368-12
	c4.736-0.315,9.157-0.315,13.579-0.632C687.42,751.579,679.525,756.632,673.525,759.158z M696.262,737.685
	c-9.702,0.303-20.287,0.33-31.736,1.728c3.736-16.601,6.549-34.438,8.738-53.518c0.01-0.096,0.02-0.192,0.029-0.288
	c19.46,0.42,36.414,3.928,46.653,13.236c5.684,5.053,8.842,12,9.789,20.526c-6.632,1.579-9.474,7.263-13.263,15.157
	c-0.316,0.632-0.632,1.264-0.947,2.211C710.473,737.369,704.156,737.369,696.262,737.685z M693.735,810.632
	c-2.842,3.79-6,8.526-10.105,14.526c-18.947,27.789-50.21,73.895-102.315,102l-7.579,4.105
	c-22.736,12.315-46.105,24.632-61.895,24.632h-0.315c-10.422,0-23.053-3.158-30.632-6c24.632-6.316,99.157-28.422,141.789-77.369
	c16.737-19.263,36.316-43.579,51.79-63.157c9.474-12,17.684-22.105,22.105-27.158c17.368-19.895,24.315-34.105,28.736-43.895
	c3.789-7.896,5.053-9.79,7.264-10.105c0.315,0,0.631,0,0.631,0c0.316,0.315,0.316,1.263,0.632,3.474
	C736.052,746.211,722.788,772.105,693.735,810.632z"/>
</svg>
